G04 DipTrace Beta 2.3.5.2*
%INBuckYeah.GBL*%
%MOIN*%
%ADD13C,0.025*%
%ADD14C,0.027*%
%ADD15C,0.0236*%
%ADD17C,0.023*%
%ADD18C,0.03*%
%ADD19C,0.035*%
%ADD20C,0.013*%
%ADD21C,0.007*%
%ADD23R,0.0236X0.0433*%
%ADD26R,0.0433X0.0394*%
%ADD27R,0.0394X0.0433*%
%ADD28R,0.0591X0.0512*%
%ADD30R,0.0315X0.0472*%
%ADD32R,0.122X0.0472*%
%FSLAX44Y44*%
G04*
G70*
G90*
G75*
G01*
%LNBottom*%
%LPD*%
X7250Y5098D2*
D13*
Y5188D1*
X8438D1*
X8525Y5275D1*
X6459Y5188D2*
X7250D1*
X6110Y5700D2*
D14*
X6400D1*
X6690D2*
X6400D1*
X6334Y2200D2*
D13*
X7378D1*
X7420Y2158D1*
X8467D1*
X8525Y2100D1*
X5250Y5125D2*
D14*
Y4900D1*
Y5350D1*
X6800Y2950D2*
X6450D1*
X6275Y2700D2*
X6450D1*
Y2950D1*
X6600Y2700D2*
X6275D1*
X6950D2*
X6600D1*
X4769Y5250D2*
X5150D1*
X5250Y5350D1*
X3275Y4050D2*
X3625D1*
X4000D1*
X3626Y3625D2*
D15*
Y3977D1*
D14*
Y4049D1*
X6275Y2700D2*
Y2775D1*
X6450Y2950D1*
X6950Y2700D2*
Y2800D1*
X6800Y2950D1*
X3575Y720D2*
D13*
X4870D1*
D17*
X5250Y1100D1*
X5475D1*
X5525Y1150D1*
X4875Y4875D2*
D13*
X5375D1*
X5400Y4900D1*
X5250D1*
Y5350D2*
X5525Y5625D1*
X6035D1*
X6110Y5700D1*
X3275Y4050D2*
X2100D1*
X2075Y4025D1*
X2809Y2530D2*
X2878D1*
X3081Y2327D1*
D15*
X3113D1*
X3252Y2188D1*
Y4688D2*
X3009D1*
D13*
X2750D1*
X2438Y5000D1*
Y5237D1*
X2451Y5250D1*
X4000Y3625D2*
D15*
X4030D1*
D13*
X4625D1*
X4750Y3750D1*
X4813D1*
X4000Y4688D2*
X4287D1*
X4556Y4419D1*
X4813D1*
X5897D1*
X5925Y4447D1*
X5750Y5188D2*
D18*
Y4623D1*
D13*
X5925Y4447D1*
X3252Y3625D2*
D15*
Y3687D1*
D13*
X3250D1*
Y3000D1*
X2625Y3518D2*
X3143Y3000D1*
X3250D1*
X4000Y1125D2*
D15*
X4063D1*
D13*
Y1092D1*
X4567D1*
X4725Y1250D1*
X4000Y2188D2*
D15*
X4063D1*
D13*
Y2155D1*
X4657D1*
X4725Y2088D1*
Y1919D1*
X5625Y2200D2*
D19*
X5006D1*
X4725Y1919D1*
X4956D1*
X5278Y1597D1*
X5900D1*
X3252Y1125D2*
D15*
Y1150D1*
D13*
Y348D1*
X3275Y325D1*
X2544D1*
Y375D1*
X5900Y650D2*
D19*
X7040D1*
X7420Y1030D1*
Y1410D1*
X3944Y325D2*
X5450D1*
X5775Y650D1*
X5900D1*
X8175Y1100D2*
D14*
X8525D1*
X8175Y700D2*
Y1100D1*
D19*
X7730D1*
X7420Y1410D1*
X8525Y700D2*
D14*
Y1100D1*
Y700D2*
Y725D1*
X5925Y3500D2*
D19*
X6875D1*
X7250Y3875D1*
Y4350D1*
X8525Y3900D2*
Y4250D1*
X7350D1*
X7250Y4350D1*
X3919Y3000D2*
D13*
X5425D1*
X5925Y3500D1*
X8175D2*
D14*
Y3875D1*
Y4275D2*
Y3875D1*
Y4275D2*
Y4225D1*
X8525Y3875D1*
X1575Y3250D2*
Y3600D1*
Y3250D2*
X1150D1*
Y3287D1*
X1112D1*
X775Y3625D1*
X1575Y3600D2*
X1332D1*
X1150D1*
X800D1*
X775Y3625D1*
X1575Y4025D2*
X1175D1*
X775Y3625D1*
Y3612D2*
Y3625D1*
X1125Y3237D2*
X1150Y3250D1*
X1125Y3612D2*
X1150Y3600D1*
X1125Y4012D2*
Y3900D1*
X1050D1*
X775Y3625D1*
X1575Y3250D2*
Y3357D1*
X1332Y3600D1*
X1575D2*
X800D1*
X1575D2*
X1537D1*
X1125Y4012D1*
X1575Y4025D2*
X1538D1*
X1125Y3612D1*
X1575Y3600D2*
Y4025D1*
X1125Y3237D2*
X1212D1*
X1575Y3600D1*
X4150Y2600D2*
D20*
X3627D1*
X3450D1*
X3800D2*
X3450D1*
X4150D2*
D14*
X3450D1*
X3800D1*
X3120Y5250D2*
D13*
X3614D1*
X4100D1*
X4150Y5700D2*
D14*
X4450D1*
X4750D1*
X5050D1*
X4150D2*
X3762D1*
X3614Y5552D1*
Y5250D1*
X4150Y2600D2*
X4500D1*
X4850D1*
X3626Y2188D2*
D13*
X3627Y2600D1*
X3626Y4688D2*
D15*
X3614D1*
Y5250D1*
X1900Y2250D2*
D14*
X2140D1*
Y2240D1*
X1890Y1940D2*
Y2250D1*
X1900D1*
X1890Y1940D2*
X1951D1*
Y1950D1*
X2160D1*
Y2240D1*
X2140D1*
X1900Y2250D2*
X2110Y2040D1*
Y2000D1*
X2160Y1950D1*
X2640Y1870D2*
Y1940D1*
X2110D1*
Y2000D1*
X1951Y1950D2*
Y2530D1*
X2140D1*
X4850Y2600D2*
X5200D1*
X4150D3*
X3450D3*
X3800D3*
X6110Y5700D3*
X6400D3*
X6690D3*
X4150D3*
X4450D3*
X4750D3*
X5050D3*
X2075Y4025D3*
X4500Y2600D3*
X4850D3*
X1900Y2250D3*
X2140Y2240D3*
X1890Y1940D3*
X2160Y1950D3*
X1575Y3250D3*
Y3600D3*
X2075Y3700D3*
X1575Y4025D3*
X775Y3612D3*
X425Y4012D3*
Y3612D3*
Y3237D3*
X775D3*
X1125D3*
Y3612D3*
Y4012D3*
X775D3*
X6800Y2950D3*
X6450D3*
X6275Y2700D3*
X6600D3*
X6950D3*
X3275Y4050D3*
X3625D3*
X4000D3*
X2075Y3375D3*
X775Y2237D3*
X425Y2637D3*
Y2237D3*
Y1862D3*
X775D3*
X8525Y700D3*
X1125Y2237D3*
Y2637D3*
X775D3*
X8175Y1100D3*
Y700D3*
Y325D3*
X8525D3*
X8875D3*
Y700D3*
Y1100D3*
X8525D3*
Y2075D3*
X8175Y2475D3*
Y2075D3*
Y1700D3*
X8525D3*
X8875D3*
Y2075D3*
Y2475D3*
X8525D3*
Y3875D3*
X8175Y4275D3*
Y3875D3*
Y3500D3*
X8525D3*
X8875D3*
Y3875D3*
Y4275D3*
X8525D3*
Y5250D3*
X8175Y5650D3*
Y5250D3*
Y4875D3*
X8525D3*
X8875D3*
Y5250D3*
Y5650D3*
X8525D3*
X5250Y5350D3*
X5200Y2600D3*
X5250Y4900D3*
Y5125D3*
X5525Y1150D3*
X5875D3*
X6225D3*
X4270Y1790D3*
Y1500D3*
X172Y5766D2*
D21*
X3451D1*
X5311D2*
X9078D1*
X172Y5698D2*
X3388D1*
X5320D2*
X9078D1*
X172Y5629D2*
X3357D1*
X5310D2*
X9078D1*
X172Y5560D2*
X2100D1*
X5279D2*
X9078D1*
X172Y5492D2*
X2100D1*
X5217D2*
X5458D1*
X6042D2*
X9078D1*
X172Y5423D2*
X2100D1*
X4451D2*
X5458D1*
X6042D2*
X9078D1*
X172Y5354D2*
X2100D1*
X4451D2*
X5458D1*
X6042D2*
X9078D1*
X172Y5285D2*
X2100D1*
X4451D2*
X5458D1*
X6042D2*
X9078D1*
X172Y5217D2*
X2100D1*
X4451D2*
X5458D1*
X6042D2*
X9078D1*
X172Y5148D2*
X2100D1*
X4451D2*
X5458D1*
X6042D2*
X9078D1*
X172Y5079D2*
X2100D1*
X4451D2*
X5458D1*
X6042D2*
X9078D1*
X172Y5011D2*
X2100D1*
X4451D2*
X5458D1*
X6042D2*
X9078D1*
X172Y4942D2*
X2100D1*
X4451D2*
X5458D1*
X6042D2*
X9078D1*
X172Y4873D2*
X2212D1*
X4466D2*
X4943D1*
X5407D2*
X5458D1*
X6042D2*
X9078D1*
X172Y4805D2*
X2268D1*
X4534D2*
X4943D1*
X6671D2*
X9078D1*
X172Y4736D2*
X2337D1*
X6671D2*
X9078D1*
X172Y4667D2*
X2406D1*
X7680D2*
X9078D1*
X172Y4599D2*
X2474D1*
X7680D2*
X8016D1*
X9034D2*
X9078D1*
X172Y4530D2*
X2543D1*
X172Y4461D2*
X2632D1*
X172Y4393D2*
X2999D1*
X172Y4324D2*
X267D1*
X1283D2*
X4286D1*
X1708Y4255D2*
X4355D1*
X1789Y4186D2*
X4450D1*
X1827Y4118D2*
X4481D1*
X1844Y4049D2*
X4481D1*
X1845Y3980D2*
X4481D1*
X1845Y3912D2*
X2743D1*
X3505D2*
X3747D1*
X4252D2*
X4481D1*
X7560D2*
X7799D1*
X1845Y3843D2*
X2294D1*
X3505D2*
X3747D1*
X7558D2*
X7799D1*
X1845Y3774D2*
X2294D1*
X3505D2*
X3747D1*
X7542D2*
X7799D1*
X1845Y3706D2*
X2294D1*
X3511D2*
X3747D1*
X7508D2*
X7799D1*
X1845Y3637D2*
X2294D1*
X3510D2*
X3747D1*
X7447D2*
X7799D1*
X1845Y3568D2*
X2294D1*
X3510D2*
X3747D1*
X7378D2*
X7799D1*
X1845Y3500D2*
X2294D1*
X3510D2*
X3747D1*
X7309D2*
X7801D1*
X1845Y3431D2*
X2294D1*
X3510D2*
X3747D1*
X7241D2*
X7809D1*
X1845Y3362D2*
X2294D1*
X3510D2*
X3747D1*
X7173D2*
X7834D1*
X1845Y3294D2*
X2294D1*
X7104D2*
X7882D1*
X1844Y3225D2*
X2294D1*
X7008D2*
X7965D1*
X1827Y3156D2*
X2623D1*
X6669D2*
X9078D1*
X1788Y3087D2*
X2692D1*
X5876D2*
X9078D1*
X1707Y3019D2*
X2761D1*
X5809D2*
X9078D1*
X172Y2950D2*
X214D1*
X1335D2*
X2828D1*
X5740D2*
X9078D1*
X172Y2881D2*
X2897D1*
X5671D2*
X9078D1*
X172Y2813D2*
X1789D1*
X5602D2*
X9078D1*
X172Y2744D2*
X1789D1*
X5427D2*
X9078D1*
X172Y2675D2*
X1726D1*
X5459D2*
X9078D1*
X172Y2607D2*
X1693D1*
X5470D2*
X9078D1*
X172Y2538D2*
X1682D1*
X5917D2*
X9078D1*
X172Y2469D2*
X1682D1*
X5917D2*
X9078D1*
X172Y2401D2*
X1668D1*
X5917D2*
X9078D1*
X172Y2332D2*
X1633D1*
X5917D2*
X9078D1*
X172Y2263D2*
X1621D1*
X5928D2*
X9078D1*
X172Y2195D2*
X1620D1*
X5934D2*
X9078D1*
X172Y2126D2*
X1620D1*
X5926D2*
X9078D1*
X172Y2057D2*
X1620D1*
X5917D2*
X9078D1*
X172Y1988D2*
X1620D1*
X5917D2*
X9078D1*
X172Y1920D2*
X1621D1*
X6645D2*
X9078D1*
X172Y1851D2*
X1636D1*
X4252D2*
X4394D1*
X6645D2*
X9078D1*
X172Y1782D2*
X1672D1*
X2971D2*
X4394D1*
X6645D2*
X6990D1*
X7850D2*
X9078D1*
X172Y1714D2*
X1750D1*
X2971D2*
X4394D1*
X6645D2*
X6990D1*
X7850D2*
X9078D1*
X172Y1645D2*
X2309D1*
X2971D2*
X4394D1*
X6645D2*
X6990D1*
X7850D2*
X9078D1*
X172Y1576D2*
X2309D1*
X2971D2*
X4394D1*
X6645D2*
X6990D1*
X7850D2*
X9078D1*
X172Y1508D2*
X4394D1*
X6645D2*
X6990D1*
X7850D2*
X9078D1*
X172Y1439D2*
X2999D1*
X3505D2*
X3747D1*
X4252D2*
X4394D1*
X6645D2*
X6990D1*
X7850D2*
X8076D1*
X8973D2*
X9078D1*
X172Y1370D2*
X2999D1*
X3505D2*
X3747D1*
X4252D2*
X4394D1*
X6645D2*
X6990D1*
X172Y1302D2*
X2999D1*
X3505D2*
X3747D1*
X5056D2*
X5155D1*
X6645D2*
X6990D1*
X172Y1233D2*
X2999D1*
X3505D2*
X3747D1*
X5056D2*
X6990D1*
X172Y1164D2*
X2992D1*
X3512D2*
X3747D1*
X5056D2*
X6990D1*
X172Y1096D2*
X2992D1*
X3512D2*
X3747D1*
X5056D2*
X6990D1*
X172Y1027D2*
X2992D1*
X3512D2*
X3747D1*
X5056D2*
X6981D1*
X172Y958D2*
X2992D1*
X3512D2*
X3747D1*
X5056D2*
X5155D1*
X6645D2*
X6914D1*
X172Y889D2*
X2992D1*
X3512D2*
X3747D1*
X4725D2*
X5155D1*
X172Y821D2*
X2992D1*
X3512D2*
X3747D1*
X4252D2*
X5155D1*
X172Y752D2*
X2992D1*
X3512D2*
X5155D1*
X172Y683D2*
X2193D1*
X2896D2*
X2992D1*
X3512D2*
X5155D1*
X172Y615D2*
X2193D1*
X172Y546D2*
X2193D1*
X172Y477D2*
X2193D1*
X172Y409D2*
X2193D1*
X172Y340D2*
X2193D1*
X172Y271D2*
X2193D1*
X172Y203D2*
X2193D1*
X364Y2908D2*
X323Y2913D1*
X276Y2925D1*
X245Y2938D1*
X215Y2954D1*
X187Y2973D1*
X165Y2991D1*
Y165D1*
X2200D1*
Y700D1*
X2889D1*
Y578D1*
X2930D1*
X2931Y650D1*
X3000D1*
X2999Y1150D1*
X3002Y1185D1*
X3006Y1207D1*
Y1469D1*
X3498D1*
Y1209D1*
X3505Y1150D1*
Y650D1*
X3619Y649D1*
X3740Y650D1*
X4289D1*
Y627D1*
X4364Y628D1*
X5162D1*
Y1014D1*
X6638D1*
Y952D1*
X6845Y953D1*
X6914D1*
X6997Y1035D1*
Y1794D1*
X7843D1*
Y1414D1*
X7870Y1403D1*
X7979Y1404D1*
X8007Y1418D1*
X8040Y1429D1*
X8073Y1437D1*
X8107Y1442D1*
X8239Y1443D1*
X8943Y1442D1*
X8991Y1434D1*
X9023Y1425D1*
X9055Y1412D1*
X9085Y1396D1*
Y3229D1*
X9040Y3207D1*
X9010Y3196D1*
X8977Y3188D1*
X8943Y3183D1*
X8811Y3182D1*
X8107Y3183D1*
X8059Y3191D1*
X8027Y3200D1*
X7995Y3213D1*
X7965Y3229D1*
X7937Y3248D1*
X7910Y3270D1*
X7886Y3295D1*
X7865Y3322D1*
X7847Y3351D1*
X7832Y3382D1*
X7821Y3415D1*
X7813Y3448D1*
X7808Y3482D1*
X7807Y3614D1*
Y3948D1*
X7553Y3947D1*
X7551Y3840D1*
X7545Y3806D1*
X7535Y3772D1*
X7521Y3740D1*
X7504Y3710D1*
X7483Y3681D1*
X7439Y3636D1*
X7089Y3286D1*
X7063Y3263D1*
X7034Y3243D1*
X7004Y3226D1*
X6971Y3213D1*
X6937Y3204D1*
X6903Y3198D1*
X6840Y3197D1*
X6664D1*
X6663Y3136D1*
X5918D1*
X5604Y2821D1*
X5577Y2798D1*
X5548Y2779D1*
X5516Y2764D1*
X5483Y2754D1*
X5449Y2748D1*
X5417Y2747D1*
X5440Y2708D1*
X5452Y2675D1*
X5460Y2641D1*
X5463Y2600D1*
X5460Y2564D1*
X5910D1*
Y2300D1*
X5923Y2255D1*
X5927Y2221D1*
Y2186D1*
X5924Y2151D1*
X5910Y2099D1*
Y1961D1*
X6638D1*
Y1233D1*
X5162D1*
Y1318D1*
X5124Y1337D1*
X5095Y1356D1*
X5049Y1398D1*
X5058Y1389D1*
X5050Y1384D1*
Y906D1*
X4738D1*
X4691Y872D1*
X4659Y857D1*
X4626Y847D1*
X4567Y840D1*
X4246Y839D1*
Y781D1*
X3754D1*
Y1469D1*
X4246D1*
Y1346D1*
X4400Y1345D1*
X4401Y1594D1*
X4400Y1715D1*
Y1902D1*
X4246D1*
Y1844D1*
X3754Y1845D1*
X3732Y1844D1*
X3380Y1845D1*
X3358Y1844D1*
X3006D1*
Y2085D1*
X2965Y2103D1*
Y1526D1*
X2315D1*
Y1678D1*
X2110Y1677D1*
X2075Y1680D1*
X2040Y1687D1*
X2017Y1685D1*
X1977Y1678D1*
X1951Y1677D1*
X1855Y1680D1*
X1821Y1686D1*
X1788Y1698D1*
X1757Y1714D1*
X1728Y1733D1*
X1702Y1757D1*
X1679Y1783D1*
X1660Y1813D1*
X1645Y1844D1*
X1635Y1878D1*
X1629Y1912D1*
X1627Y1975D1*
Y2250D1*
X1630Y2285D1*
X1636Y2319D1*
X1648Y2352D1*
X1664Y2383D1*
X1689Y2419D1*
Y2530D1*
X1691Y2565D1*
X1698Y2599D1*
X1709Y2632D1*
X1725Y2663D1*
X1745Y2692D1*
X1768Y2718D1*
X1796Y2742D1*
Y2855D1*
X2484Y2854D1*
X2605Y2855D1*
X2906D1*
X2890Y2895D1*
X2611Y3175D1*
X2390Y3174D1*
X2300D1*
Y3863D1*
X2750D1*
Y3950D1*
X3007D1*
X3006Y3969D1*
X3498D1*
Y3745D1*
X3504Y3701D1*
X3503Y3652D1*
Y3325D1*
X3594Y3324D1*
X3715Y3325D1*
X3753D1*
X3754Y3631D1*
Y3969D1*
X4246D1*
Y3879D1*
X4488Y3878D1*
Y4094D1*
X4487Y4176D1*
X4454Y4188D1*
X4423Y4204D1*
X4377Y4241D1*
X4246Y4371D1*
Y4344D1*
X3754Y4345D1*
X3732Y4344D1*
X3380Y4345D1*
X3358Y4344D1*
X3006D1*
Y4434D1*
X2750Y4435D1*
X2715Y4438D1*
X2680Y4445D1*
X2648Y4457D1*
X2617Y4473D1*
X2589Y4493D1*
X2472Y4608D1*
X2259Y4821D1*
X2236Y4848D1*
X2217Y4877D1*
X2202Y4909D1*
X2165Y4925D1*
X2106D1*
Y5575D1*
X2795Y5574D1*
X2916Y5575D1*
X3352D1*
X3361Y5621D1*
X3372Y5654D1*
X3388Y5685D1*
X3408Y5714D1*
X3453Y5762D1*
X3527Y5836D1*
X3275Y5835D1*
X165D1*
Y4259D1*
X197Y4285D1*
X226Y4303D1*
X257Y4318D1*
X290Y4329D1*
X323Y4337D1*
X357Y4342D1*
X489Y4343D1*
X1193Y4342D1*
X1241Y4334D1*
X1273Y4325D1*
X1305Y4312D1*
X1335Y4296D1*
X1350Y4288D1*
X1575D1*
X1610Y4285D1*
X1644Y4279D1*
X1677Y4267D1*
X1708Y4251D1*
X1737Y4232D1*
X1763Y4208D1*
X1786Y4182D1*
X1805Y4152D1*
X1820Y4121D1*
X1830Y4087D1*
X1836Y4053D1*
X1838Y3990D1*
Y3250D1*
X1835Y3215D1*
X1829Y3181D1*
X1817Y3148D1*
X1801Y3117D1*
X1782Y3088D1*
X1758Y3062D1*
X1732Y3039D1*
X1702Y3020D1*
X1671Y3005D1*
X1637Y2995D1*
X1603Y2989D1*
X1575Y2987D1*
X1380Y2986D1*
X1353Y2965D1*
X1324Y2947D1*
X1293Y2932D1*
X1260Y2921D1*
X1227Y2913D1*
X1193Y2908D1*
X1061Y2907D1*
X364Y2908D1*
X7959Y4567D2*
X7995Y4587D1*
X8040Y4604D1*
X8073Y4612D1*
X8107Y4617D1*
X8239Y4618D1*
X8943Y4617D1*
X8991Y4609D1*
X9023Y4600D1*
X9055Y4587D1*
X9085Y4571D1*
Y5835D1*
X5275D1*
X5295Y5796D1*
X5305Y5762D1*
X5311Y5728D1*
X5313Y5693D1*
X5309Y5658D1*
X5302Y5624D1*
X5289Y5591D1*
X5273Y5560D1*
X5252Y5532D1*
X5228Y5507D1*
X5201Y5485D1*
X5171Y5467D1*
X5139Y5453D1*
X5105Y5443D1*
X5050Y5437D1*
X4445D1*
X4444Y4925D1*
X4373D1*
X4419Y4903D1*
X4466Y4867D1*
X4569Y4764D1*
X4951D1*
X4950Y4875D1*
X5400D1*
Y4810D1*
X5473Y4811D1*
X5465Y4823D1*
Y5552D1*
X6035D1*
Y4823D1*
X6028D1*
X6062Y4811D1*
X6663D1*
Y4725D1*
X6827D1*
Y4734D1*
X7673D1*
Y4553D1*
X7939D1*
X7959Y4567D1*
G36*
X1166Y1659D2*
X384D1*
X364Y1661D1*
X343Y1664D1*
X323Y1669D1*
X303Y1677D1*
X284Y1686D1*
X267Y1698D1*
X251Y1711D1*
X236Y1726D1*
X223Y1742D1*
X211Y1759D1*
X202Y1778D1*
X194Y1798D1*
X189Y1818D1*
X186Y1839D1*
X184Y1859D1*
Y2641D1*
X186Y2661D1*
X189Y2682D1*
X194Y2702D1*
X202Y2722D1*
X211Y2741D1*
X223Y2758D1*
X236Y2774D1*
X251Y2789D1*
X267Y2802D1*
X284Y2814D1*
X303Y2823D1*
X323Y2831D1*
X343Y2836D1*
X364Y2839D1*
X384Y2841D1*
X1166D1*
X1186Y2839D1*
X1207Y2836D1*
X1227Y2831D1*
X1247Y2823D1*
X1266Y2814D1*
X1283Y2802D1*
X1299Y2789D1*
X1314Y2774D1*
X1327Y2758D1*
X1339Y2741D1*
X1348Y2722D1*
X1356Y2702D1*
X1361Y2682D1*
X1364Y2661D1*
X1366Y2641D1*
Y1859D1*
X1364Y1839D1*
X1361Y1818D1*
X1356Y1798D1*
X1348Y1778D1*
X1339Y1759D1*
X1327Y1742D1*
X1314Y1726D1*
X1299Y1711D1*
X1283Y1698D1*
X1266Y1686D1*
X1247Y1677D1*
X1227Y1669D1*
X1207Y1664D1*
X1186Y1661D1*
X1166Y1659D1*
G37*
G36*
Y3034D2*
X384D1*
X364Y3036D1*
X343Y3039D1*
X323Y3044D1*
X303Y3052D1*
X284Y3061D1*
X267Y3073D1*
X251Y3086D1*
X236Y3101D1*
X223Y3117D1*
X211Y3134D1*
X202Y3153D1*
X194Y3173D1*
X189Y3193D1*
X186Y3214D1*
X184Y3234D1*
Y4016D1*
X186Y4036D1*
X189Y4057D1*
X194Y4077D1*
X202Y4097D1*
X211Y4116D1*
X223Y4133D1*
X236Y4149D1*
X251Y4164D1*
X267Y4177D1*
X284Y4189D1*
X303Y4198D1*
X323Y4206D1*
X343Y4211D1*
X364Y4214D1*
X384Y4216D1*
X1166D1*
X1186Y4214D1*
X1207Y4211D1*
X1227Y4206D1*
X1247Y4198D1*
X1266Y4189D1*
X1283Y4177D1*
X1299Y4164D1*
X1314Y4149D1*
X1327Y4133D1*
X1339Y4116D1*
X1348Y4097D1*
X1356Y4077D1*
X1361Y4057D1*
X1364Y4036D1*
X1366Y4016D1*
Y3234D1*
X1364Y3214D1*
X1361Y3193D1*
X1356Y3173D1*
X1348Y3153D1*
X1339Y3134D1*
X1327Y3117D1*
X1314Y3101D1*
X1299Y3086D1*
X1283Y3073D1*
X1266Y3061D1*
X1247Y3052D1*
X1227Y3044D1*
X1207Y3039D1*
X1186Y3036D1*
X1166Y3034D1*
G37*
G36*
X8916Y3309D2*
X8134D1*
X8114Y3311D1*
X8093Y3314D1*
X8073Y3319D1*
X8053Y3327D1*
X8034Y3336D1*
X8017Y3348D1*
X8001Y3361D1*
X7986Y3376D1*
X7973Y3392D1*
X7961Y3409D1*
X7952Y3428D1*
X7944Y3448D1*
X7939Y3468D1*
X7936Y3489D1*
X7934Y3509D1*
Y4291D1*
X7936Y4311D1*
X7939Y4332D1*
X7944Y4352D1*
X7952Y4372D1*
X7961Y4391D1*
X7973Y4408D1*
X7986Y4424D1*
X8001Y4439D1*
X8017Y4452D1*
X8034Y4464D1*
X8053Y4473D1*
X8073Y4481D1*
X8093Y4486D1*
X8114Y4489D1*
X8134Y4491D1*
X8916D1*
X8936Y4489D1*
X8957Y4486D1*
X8977Y4481D1*
X8997Y4473D1*
X9016Y4464D1*
X9033Y4452D1*
X9049Y4439D1*
X9064Y4424D1*
X9077Y4408D1*
X9089Y4391D1*
X9098Y4372D1*
X9106Y4352D1*
X9111Y4332D1*
X9114Y4311D1*
X9116Y4291D1*
Y3509D1*
X9114Y3489D1*
X9111Y3468D1*
X9106Y3448D1*
X9098Y3428D1*
X9089Y3409D1*
X9077Y3392D1*
X9064Y3376D1*
X9049Y3361D1*
X9033Y3348D1*
X9016Y3336D1*
X8997Y3327D1*
X8977Y3319D1*
X8957Y3314D1*
X8936Y3311D1*
X8916Y3309D1*
G37*
G36*
Y4684D2*
X8134D1*
X8114Y4686D1*
X8093Y4689D1*
X8073Y4694D1*
X8053Y4702D1*
X8034Y4711D1*
X8017Y4723D1*
X8001Y4736D1*
X7986Y4751D1*
X7973Y4767D1*
X7961Y4784D1*
X7952Y4803D1*
X7944Y4823D1*
X7939Y4843D1*
X7936Y4864D1*
X7934Y4884D1*
Y5666D1*
X7936Y5686D1*
X7939Y5707D1*
X7944Y5727D1*
X7952Y5747D1*
X7961Y5766D1*
X7973Y5783D1*
X7986Y5799D1*
X8001Y5814D1*
X8017Y5827D1*
X8034Y5839D1*
X8053Y5848D1*
X8073Y5856D1*
X8093Y5861D1*
X8114Y5864D1*
X8134Y5866D1*
X8916D1*
X8936Y5864D1*
X8957Y5861D1*
X8977Y5856D1*
X8997Y5848D1*
X9016Y5839D1*
X9033Y5827D1*
X9049Y5814D1*
X9064Y5799D1*
X9077Y5783D1*
X9089Y5766D1*
X9098Y5747D1*
X9106Y5727D1*
X9111Y5707D1*
X9114Y5686D1*
X9116Y5666D1*
Y4884D1*
X9114Y4864D1*
X9111Y4843D1*
X9106Y4823D1*
X9098Y4803D1*
X9089Y4784D1*
X9077Y4767D1*
X9064Y4751D1*
X9049Y4736D1*
X9033Y4723D1*
X9016Y4711D1*
X8997Y4702D1*
X8977Y4694D1*
X8957Y4689D1*
X8936Y4686D1*
X8916Y4684D1*
G37*
G36*
Y134D2*
X8134D1*
X8114Y136D1*
X8093Y139D1*
X8073Y144D1*
X8053Y152D1*
X8034Y161D1*
X8017Y173D1*
X8001Y186D1*
X7986Y201D1*
X7973Y217D1*
X7961Y234D1*
X7952Y253D1*
X7944Y273D1*
X7939Y293D1*
X7936Y314D1*
X7934Y334D1*
Y1116D1*
X7936Y1136D1*
X7939Y1157D1*
X7944Y1177D1*
X7952Y1197D1*
X7961Y1216D1*
X7973Y1233D1*
X7986Y1249D1*
X8001Y1264D1*
X8017Y1277D1*
X8034Y1289D1*
X8053Y1298D1*
X8073Y1306D1*
X8093Y1311D1*
X8114Y1314D1*
X8134Y1316D1*
X8916D1*
X8936Y1314D1*
X8957Y1311D1*
X8977Y1306D1*
X8997Y1298D1*
X9016Y1289D1*
X9033Y1277D1*
X9049Y1264D1*
X9064Y1249D1*
X9077Y1233D1*
X9089Y1216D1*
X9098Y1197D1*
X9106Y1177D1*
X9111Y1157D1*
X9114Y1136D1*
X9116Y1116D1*
Y334D1*
X9114Y314D1*
X9111Y293D1*
X9106Y273D1*
X9098Y253D1*
X9089Y234D1*
X9077Y217D1*
X9064Y201D1*
X9049Y186D1*
X9033Y173D1*
X9016Y161D1*
X8997Y152D1*
X8977Y144D1*
X8957Y139D1*
X8936Y136D1*
X8916Y134D1*
G37*
G36*
Y1509D2*
X8134D1*
X8114Y1511D1*
X8093Y1514D1*
X8073Y1519D1*
X8053Y1527D1*
X8034Y1536D1*
X8017Y1548D1*
X8001Y1561D1*
X7986Y1576D1*
X7973Y1592D1*
X7961Y1609D1*
X7952Y1628D1*
X7944Y1648D1*
X7939Y1668D1*
X7936Y1689D1*
X7934Y1709D1*
Y2491D1*
X7936Y2511D1*
X7939Y2532D1*
X7944Y2552D1*
X7952Y2572D1*
X7961Y2591D1*
X7973Y2608D1*
X7986Y2624D1*
X8001Y2639D1*
X8017Y2652D1*
X8034Y2664D1*
X8053Y2673D1*
X8073Y2681D1*
X8093Y2686D1*
X8114Y2689D1*
X8134Y2691D1*
X8916D1*
X8936Y2689D1*
X8957Y2686D1*
X8977Y2681D1*
X8997Y2673D1*
X9016Y2664D1*
X9033Y2652D1*
X9049Y2639D1*
X9064Y2624D1*
X9077Y2608D1*
X9089Y2591D1*
X9098Y2572D1*
X9106Y2552D1*
X9111Y2532D1*
X9114Y2511D1*
X9116Y2491D1*
Y1709D1*
X9114Y1689D1*
X9111Y1668D1*
X9106Y1648D1*
X9098Y1628D1*
X9089Y1609D1*
X9077Y1592D1*
X9064Y1576D1*
X9049Y1561D1*
X9033Y1548D1*
X9016Y1536D1*
X8997Y1527D1*
X8977Y1519D1*
X8957Y1514D1*
X8936Y1511D1*
X8916Y1509D1*
G37*
D23*
X4000Y3625D3*
X3626D3*
X3252D3*
Y4688D3*
X3626D3*
X4000D3*
Y1125D3*
X3626D3*
X3252D3*
Y2188D3*
X3626D3*
X4000D3*
D26*
X4100Y5250D3*
X4769D3*
D27*
X4813Y3750D3*
Y4419D3*
D28*
X7250Y4350D3*
Y5098D3*
D27*
X2640Y1870D3*
Y1201D3*
X4725Y1250D3*
Y1919D3*
D28*
X7420Y1410D3*
Y2158D3*
D30*
X5750Y5188D3*
X6459D3*
X5625Y2200D3*
X6334D3*
D32*
X5925Y3500D3*
Y4447D3*
X5900Y650D3*
Y1597D3*
D26*
X3250Y3000D3*
X3919D3*
D27*
X2625Y4188D3*
Y3518D3*
D26*
X3120Y5250D3*
X2451D3*
X2140Y2530D3*
X2809D3*
X3275Y325D3*
X3944D3*
X1875Y375D3*
X2544D3*
M02*
