G04 DipTrace Beta 2.3.5.2*
%INBuckYeah.GBO*%
%MOIN*%
%ADD36C,0.0087*%
%FSLAX44Y44*%
G04*
G70*
G90*
G75*
G01*
%LNBottom BottomSilk*%
%LPD*%
X851Y4607D2*
D36*
X450Y4760D1*
X851Y4913D1*
Y5088D2*
X450D1*
X851Y5531D2*
X450D1*
X851Y5263D1*
X450D1*
X756Y595D2*
X794Y576D1*
X832Y538D1*
X851Y500D1*
Y423D1*
X832Y385D1*
X794Y347D1*
X756Y327D1*
X698Y308D1*
X603D1*
X545Y327D1*
X507Y347D1*
X469Y385D1*
X450Y423D1*
Y500D1*
X469Y538D1*
X507Y576D1*
X545Y595D1*
X603D1*
Y500D1*
X851Y1038D2*
X450D1*
X851Y770D1*
X450D1*
X851Y1213D2*
X450D1*
Y1347D1*
X469Y1405D1*
X507Y1443D1*
X545Y1462D1*
X603Y1481D1*
X698D1*
X756Y1462D1*
X794Y1443D1*
X832Y1405D1*
X851Y1347D1*
Y1213D1*
X7288Y796D2*
X7268Y757D1*
X7211Y700D1*
X7613D1*
X7307Y505D2*
X7288D1*
X7249Y486D1*
X7230Y467D1*
X7211Y429D1*
Y352D1*
X7230Y314D1*
X7249Y295D1*
X7288Y276D1*
X7326D1*
X7364Y295D1*
X7421Y333D1*
X7613Y525D1*
Y257D1*
X7251Y3431D2*
Y3622D1*
X7423Y3641D1*
X7404Y3622D1*
X7384Y3564D1*
Y3507D1*
X7404Y3450D1*
X7442Y3411D1*
X7499Y3392D1*
X7537D1*
X7595Y3411D1*
X7633Y3450D1*
X7652Y3507D1*
Y3564D1*
X7633Y3622D1*
X7614Y3641D1*
X7576Y3660D1*
M02*
