M48
INCH
T01C0.013
%
T01
X+004150Y+002600
X+003800Y+002600
X+003450Y+002600
X+004500Y+002600
X+004850Y+002600
X+005200Y+002600
X+006275Y+002700
X+006450Y+002950
X+006600Y+002700
X+006800Y+002950
X+006950Y+002700
X+008175Y+002475
X+008525Y+002475
X+008875Y+002475
X+008875Y+002075
X+008525Y+002075
X+008175Y+002075
X+008175Y+001700
X+008525Y+001700
X+008875Y+001700
X+008875Y+001100
X+008525Y+001100
X+008175Y+001100
X+008175Y+000700
X+008525Y+000700
X+008875Y+000700
X+008875Y+000325
X+008525Y+000325
X+008175Y+000325
X+006225Y+001150
X+005875Y+001150
X+005525Y+001150
X+004270Y+001500
X+004270Y+001790
X+002160Y+001950
X+001890Y+001940
X+001900Y+002250
X+002140Y+002240
X+001125Y+002237
X+000775Y+002237
X+000425Y+002237
X+000425Y+001862
X+000775Y+001862
X+000775Y+002637
X+001125Y+002637
X+001125Y+003237
X+000775Y+003237
X+000425Y+003237
X+000425Y+003612
X+000775Y+003612
X+001125Y+003612
X+001125Y+004012
X+000775Y+004012
X+000425Y+004012
X+001575Y+004025
X+001575Y+003600
X+001575Y+003250
X+002075Y+003375
X+002075Y+003700
X+002075Y+004025
X+003275Y+004050
X+003625Y+004050
X+004000Y+004050
X+005250Y+004900
X+005250Y+005125
X+005250Y+005350
X+005050Y+005700
X+004750Y+005700
X+004450Y+005700
X+004150Y+005700
X+006110Y+005700
X+006400Y+005700
X+006690Y+005700
X+008175Y+005650
X+008525Y+005650
X+008875Y+005650
X+008875Y+005250
X+008525Y+005250
X+008175Y+005250
X+008175Y+004875
X+008525Y+004875
X+008875Y+004875
X+008875Y+004275
X+008525Y+004275
X+008175Y+004275
X+008175Y+003875
X+008525Y+003875
X+008875Y+003875
X+008875Y+003500
X+008525Y+003500
X+008175Y+003500
X+000425Y+002637
T00
M30
