G04 DipTrace Beta 2.3.5.2*
%INBuckYeah.GBS*%
%MOIN*%
%ADD23R,0.0236X0.0433*%
%ADD26R,0.0433X0.0394*%
%ADD27R,0.0394X0.0433*%
%ADD28R,0.0591X0.0512*%
%ADD30R,0.0315X0.0472*%
%ADD32R,0.122X0.0472*%
%FSLAX44Y44*%
G04*
G70*
G90*
G75*
G01*
%LNBotMask*%
%LPD*%
G36*
X1166Y1659D2*
X384D1*
X364Y1661D1*
X343Y1664D1*
X323Y1669D1*
X303Y1677D1*
X284Y1686D1*
X267Y1698D1*
X251Y1711D1*
X236Y1726D1*
X223Y1742D1*
X211Y1759D1*
X202Y1778D1*
X194Y1798D1*
X189Y1818D1*
X186Y1839D1*
X184Y1859D1*
Y2641D1*
X186Y2661D1*
X189Y2682D1*
X194Y2702D1*
X202Y2722D1*
X211Y2741D1*
X223Y2758D1*
X236Y2774D1*
X251Y2789D1*
X267Y2802D1*
X284Y2814D1*
X303Y2823D1*
X323Y2831D1*
X343Y2836D1*
X364Y2839D1*
X384Y2841D1*
X1166D1*
X1186Y2839D1*
X1207Y2836D1*
X1227Y2831D1*
X1247Y2823D1*
X1266Y2814D1*
X1283Y2802D1*
X1299Y2789D1*
X1314Y2774D1*
X1327Y2758D1*
X1339Y2741D1*
X1348Y2722D1*
X1356Y2702D1*
X1361Y2682D1*
X1364Y2661D1*
X1366Y2641D1*
Y1859D1*
X1364Y1839D1*
X1361Y1818D1*
X1356Y1798D1*
X1348Y1778D1*
X1339Y1759D1*
X1327Y1742D1*
X1314Y1726D1*
X1299Y1711D1*
X1283Y1698D1*
X1266Y1686D1*
X1247Y1677D1*
X1227Y1669D1*
X1207Y1664D1*
X1186Y1661D1*
X1166Y1659D1*
G37*
G36*
Y3034D2*
X384D1*
X364Y3036D1*
X343Y3039D1*
X323Y3044D1*
X303Y3052D1*
X284Y3061D1*
X267Y3073D1*
X251Y3086D1*
X236Y3101D1*
X223Y3117D1*
X211Y3134D1*
X202Y3153D1*
X194Y3173D1*
X189Y3193D1*
X186Y3214D1*
X184Y3234D1*
Y4016D1*
X186Y4036D1*
X189Y4057D1*
X194Y4077D1*
X202Y4097D1*
X211Y4116D1*
X223Y4133D1*
X236Y4149D1*
X251Y4164D1*
X267Y4177D1*
X284Y4189D1*
X303Y4198D1*
X323Y4206D1*
X343Y4211D1*
X364Y4214D1*
X384Y4216D1*
X1166D1*
X1186Y4214D1*
X1207Y4211D1*
X1227Y4206D1*
X1247Y4198D1*
X1266Y4189D1*
X1283Y4177D1*
X1299Y4164D1*
X1314Y4149D1*
X1327Y4133D1*
X1339Y4116D1*
X1348Y4097D1*
X1356Y4077D1*
X1361Y4057D1*
X1364Y4036D1*
X1366Y4016D1*
Y3234D1*
X1364Y3214D1*
X1361Y3193D1*
X1356Y3173D1*
X1348Y3153D1*
X1339Y3134D1*
X1327Y3117D1*
X1314Y3101D1*
X1299Y3086D1*
X1283Y3073D1*
X1266Y3061D1*
X1247Y3052D1*
X1227Y3044D1*
X1207Y3039D1*
X1186Y3036D1*
X1166Y3034D1*
G37*
G36*
X8916Y3309D2*
X8134D1*
X8114Y3311D1*
X8093Y3314D1*
X8073Y3319D1*
X8053Y3327D1*
X8034Y3336D1*
X8017Y3348D1*
X8001Y3361D1*
X7986Y3376D1*
X7973Y3392D1*
X7961Y3409D1*
X7952Y3428D1*
X7944Y3448D1*
X7939Y3468D1*
X7936Y3489D1*
X7934Y3509D1*
Y4291D1*
X7936Y4311D1*
X7939Y4332D1*
X7944Y4352D1*
X7952Y4372D1*
X7961Y4391D1*
X7973Y4408D1*
X7986Y4424D1*
X8001Y4439D1*
X8017Y4452D1*
X8034Y4464D1*
X8053Y4473D1*
X8073Y4481D1*
X8093Y4486D1*
X8114Y4489D1*
X8134Y4491D1*
X8916D1*
X8936Y4489D1*
X8957Y4486D1*
X8977Y4481D1*
X8997Y4473D1*
X9016Y4464D1*
X9033Y4452D1*
X9049Y4439D1*
X9064Y4424D1*
X9077Y4408D1*
X9089Y4391D1*
X9098Y4372D1*
X9106Y4352D1*
X9111Y4332D1*
X9114Y4311D1*
X9116Y4291D1*
Y3509D1*
X9114Y3489D1*
X9111Y3468D1*
X9106Y3448D1*
X9098Y3428D1*
X9089Y3409D1*
X9077Y3392D1*
X9064Y3376D1*
X9049Y3361D1*
X9033Y3348D1*
X9016Y3336D1*
X8997Y3327D1*
X8977Y3319D1*
X8957Y3314D1*
X8936Y3311D1*
X8916Y3309D1*
G37*
G36*
Y4684D2*
X8134D1*
X8114Y4686D1*
X8093Y4689D1*
X8073Y4694D1*
X8053Y4702D1*
X8034Y4711D1*
X8017Y4723D1*
X8001Y4736D1*
X7986Y4751D1*
X7973Y4767D1*
X7961Y4784D1*
X7952Y4803D1*
X7944Y4823D1*
X7939Y4843D1*
X7936Y4864D1*
X7934Y4884D1*
Y5666D1*
X7936Y5686D1*
X7939Y5707D1*
X7944Y5727D1*
X7952Y5747D1*
X7961Y5766D1*
X7973Y5783D1*
X7986Y5799D1*
X8001Y5814D1*
X8017Y5827D1*
X8034Y5839D1*
X8053Y5848D1*
X8073Y5856D1*
X8093Y5861D1*
X8114Y5864D1*
X8134Y5866D1*
X8916D1*
X8936Y5864D1*
X8957Y5861D1*
X8977Y5856D1*
X8997Y5848D1*
X9016Y5839D1*
X9033Y5827D1*
X9049Y5814D1*
X9064Y5799D1*
X9077Y5783D1*
X9089Y5766D1*
X9098Y5747D1*
X9106Y5727D1*
X9111Y5707D1*
X9114Y5686D1*
X9116Y5666D1*
Y4884D1*
X9114Y4864D1*
X9111Y4843D1*
X9106Y4823D1*
X9098Y4803D1*
X9089Y4784D1*
X9077Y4767D1*
X9064Y4751D1*
X9049Y4736D1*
X9033Y4723D1*
X9016Y4711D1*
X8997Y4702D1*
X8977Y4694D1*
X8957Y4689D1*
X8936Y4686D1*
X8916Y4684D1*
G37*
G36*
Y134D2*
X8134D1*
X8114Y136D1*
X8093Y139D1*
X8073Y144D1*
X8053Y152D1*
X8034Y161D1*
X8017Y173D1*
X8001Y186D1*
X7986Y201D1*
X7973Y217D1*
X7961Y234D1*
X7952Y253D1*
X7944Y273D1*
X7939Y293D1*
X7936Y314D1*
X7934Y334D1*
Y1116D1*
X7936Y1136D1*
X7939Y1157D1*
X7944Y1177D1*
X7952Y1197D1*
X7961Y1216D1*
X7973Y1233D1*
X7986Y1249D1*
X8001Y1264D1*
X8017Y1277D1*
X8034Y1289D1*
X8053Y1298D1*
X8073Y1306D1*
X8093Y1311D1*
X8114Y1314D1*
X8134Y1316D1*
X8916D1*
X8936Y1314D1*
X8957Y1311D1*
X8977Y1306D1*
X8997Y1298D1*
X9016Y1289D1*
X9033Y1277D1*
X9049Y1264D1*
X9064Y1249D1*
X9077Y1233D1*
X9089Y1216D1*
X9098Y1197D1*
X9106Y1177D1*
X9111Y1157D1*
X9114Y1136D1*
X9116Y1116D1*
Y334D1*
X9114Y314D1*
X9111Y293D1*
X9106Y273D1*
X9098Y253D1*
X9089Y234D1*
X9077Y217D1*
X9064Y201D1*
X9049Y186D1*
X9033Y173D1*
X9016Y161D1*
X8997Y152D1*
X8977Y144D1*
X8957Y139D1*
X8936Y136D1*
X8916Y134D1*
G37*
G36*
Y1509D2*
X8134D1*
X8114Y1511D1*
X8093Y1514D1*
X8073Y1519D1*
X8053Y1527D1*
X8034Y1536D1*
X8017Y1548D1*
X8001Y1561D1*
X7986Y1576D1*
X7973Y1592D1*
X7961Y1609D1*
X7952Y1628D1*
X7944Y1648D1*
X7939Y1668D1*
X7936Y1689D1*
X7934Y1709D1*
Y2491D1*
X7936Y2511D1*
X7939Y2532D1*
X7944Y2552D1*
X7952Y2572D1*
X7961Y2591D1*
X7973Y2608D1*
X7986Y2624D1*
X8001Y2639D1*
X8017Y2652D1*
X8034Y2664D1*
X8053Y2673D1*
X8073Y2681D1*
X8093Y2686D1*
X8114Y2689D1*
X8134Y2691D1*
X8916D1*
X8936Y2689D1*
X8957Y2686D1*
X8977Y2681D1*
X8997Y2673D1*
X9016Y2664D1*
X9033Y2652D1*
X9049Y2639D1*
X9064Y2624D1*
X9077Y2608D1*
X9089Y2591D1*
X9098Y2572D1*
X9106Y2552D1*
X9111Y2532D1*
X9114Y2511D1*
X9116Y2491D1*
Y1709D1*
X9114Y1689D1*
X9111Y1668D1*
X9106Y1648D1*
X9098Y1628D1*
X9089Y1609D1*
X9077Y1592D1*
X9064Y1576D1*
X9049Y1561D1*
X9033Y1548D1*
X9016Y1536D1*
X8997Y1527D1*
X8977Y1519D1*
X8957Y1514D1*
X8936Y1511D1*
X8916Y1509D1*
G37*
D23*
X4000Y3625D3*
X3626D3*
X3252D3*
Y4688D3*
X3626D3*
X4000D3*
Y1125D3*
X3626D3*
X3252D3*
Y2188D3*
X3626D3*
X4000D3*
D26*
X4100Y5250D3*
X4769D3*
D27*
X4813Y3750D3*
Y4419D3*
D28*
X7250Y4350D3*
Y5098D3*
D27*
X2640Y1870D3*
Y1201D3*
X4725Y1250D3*
Y1919D3*
D28*
X7420Y1410D3*
Y2158D3*
D30*
X5750Y5188D3*
X6459D3*
X5625Y2200D3*
X6334D3*
D32*
X5925Y3500D3*
Y4447D3*
X5900Y650D3*
Y1597D3*
D26*
X3250Y3000D3*
X3919D3*
D27*
X2625Y4188D3*
Y3518D3*
D26*
X3120Y5250D3*
X2451D3*
X2140Y2530D3*
X2809D3*
X3275Y325D3*
X3944D3*
X1875Y375D3*
X2544D3*
M02*
