G04 DipTrace Beta 2.3.5.2*
%INBuckYeah.GTO*%
%MOIN*%
%ADD37C,0.0046*%
%FSLAX44Y44*%
G04*
G70*
G90*
G75*
G01*
%LNTop TopSilk*%
%LPD*%
X5173Y523D2*
D37*
Y222D1*
X5328D1*
X5380Y236D1*
X5397Y251D1*
X5414Y279D1*
Y322D1*
X5397Y351D1*
X5380Y365D1*
X5328Y380D1*
X5380Y394D1*
X5397Y409D1*
X5414Y437D1*
Y466D1*
X5397Y494D1*
X5380Y509D1*
X5328Y523D1*
X5173D1*
Y380D2*
X5328D1*
X5525Y423D2*
Y279D1*
X5543Y236D1*
X5577Y222D1*
X5629D1*
X5663Y236D1*
X5715Y279D1*
Y423D2*
Y222D1*
X6033Y380D2*
X5998Y409D1*
X5964Y423D1*
X5912D1*
X5878Y409D1*
X5844Y380D1*
X5826Y337D1*
Y308D1*
X5844Y265D1*
X5878Y236D1*
X5912Y222D1*
X5964D1*
X5998Y236D1*
X6033Y265D1*
X6144Y523D2*
Y222D1*
X6316Y423D2*
X6144Y279D1*
X6213Y337D2*
X6334Y222D1*
X6445Y523D2*
X6582Y380D1*
Y222D1*
X6720Y523D2*
X6582Y380D1*
X6831Y337D2*
X7038D1*
Y365D1*
X7021Y394D1*
X7004Y409D1*
X6969Y423D1*
X6917D1*
X6883Y409D1*
X6848Y380D1*
X6831Y337D1*
Y308D1*
X6848Y265D1*
X6883Y236D1*
X6917Y222D1*
X6969D1*
X7004Y236D1*
X7038Y265D1*
X7355Y423D2*
Y222D1*
Y380D2*
X7321Y409D1*
X7287Y423D1*
X7235D1*
X7201Y409D1*
X7166Y380D1*
X7149Y337D1*
Y308D1*
X7166Y265D1*
X7201Y236D1*
X7235Y222D1*
X7287D1*
X7321Y236D1*
X7355Y265D1*
X7467Y523D2*
Y222D1*
Y365D2*
X7518Y409D1*
X7553Y423D1*
X7605D1*
X7639Y409D1*
X7656Y365D1*
Y222D1*
M02*
